<svg width="861" height="266" viewBox="0 0 861 266" fill="none" xmlns="http://www.w3.org/2000/svg">
<path d="M56.7687 225.404C31.3602 225.404 19.3426 215.103 19.3426 190.152V123.655H2.17461V101.68H19.3426V70.8918H48.2992V101.68H70.8465V123.655H48.2992V187.748C48.2992 199.652 53.5641 203.429 63.9793 203.429C66.7262 203.429 68.9008 203.085 70.8465 202.971V224.373C67.5273 224.831 62.4914 225.404 56.7687 225.404ZM141.464 225.404C105.068 225.404 83.093 201.254 83.093 162.683V162.569C83.093 124.341 105.411 99.1617 140.091 99.1617C174.77 99.1617 196.287 123.54 196.287 160.165V169.321H111.363C111.821 190.61 123.495 203.2 142.036 203.2C156.229 203.2 165.499 195.646 168.246 187.52L168.475 186.718H195.143L194.799 187.977C191.022 206.633 173.168 225.404 141.464 225.404ZM140.434 121.48C125.326 121.48 113.995 131.666 111.706 150.322H168.589C166.529 131.094 155.542 121.48 140.434 121.48ZM259.809 225.404C234.4 225.404 222.382 215.103 222.382 190.152V123.655H205.214V101.68H222.382V70.8918H251.339V101.68H273.886V123.655H251.339V187.748C251.339 199.652 256.604 203.429 267.019 203.429C269.766 203.429 271.941 203.085 273.886 202.971V224.373C270.567 224.831 265.531 225.404 259.809 225.404ZM327.679 225.06C303.415 225.06 287.048 210.067 287.048 188.435V188.206C287.048 166.689 303.759 153.756 333.173 151.925L364.877 149.979V141.624C364.877 129.377 356.865 121.938 342.444 121.938C328.938 121.938 320.698 128.233 318.866 137.16L318.637 138.19H292.199L292.313 136.817C294.03 115.3 312.686 99.1617 343.474 99.1617C373.804 99.1617 393.375 115.185 393.375 139.564V223H364.877V204.344H364.19C357.208 217.048 343.703 225.06 327.679 225.06ZM315.433 187.291C315.433 197.248 323.673 203.314 336.149 203.314C352.516 203.314 364.877 192.441 364.877 178.02V168.864L337.179 170.58C323.101 171.496 315.433 177.562 315.433 187.176V187.291Z" fill="#171A26"/>
<path d="M470.238 225.404C434.186 225.404 411.638 201.139 411.638 162.225V162.111C411.638 123.426 434.529 99.1617 469.895 99.1617C501.827 99.1617 521.742 119.42 523.459 143.684L523.573 144.6H496.677L496.448 143.57C494.045 131.781 485.346 122.281 470.238 122.281C452.269 122.281 440.709 137.504 440.709 162.34V162.454C440.709 187.748 452.384 202.398 470.353 202.398C484.774 202.398 493.93 193.814 496.562 181.11L496.791 180.08H523.688L523.573 180.881C521.399 206.175 500.912 225.404 470.238 225.404ZM540.741 263.059V101.68H569.24V122.625H569.812C576.794 108.089 590.071 99.1617 607.468 99.1617C638.255 99.1617 657.712 123.197 657.712 162.34V162.454C657.712 201.368 638.255 225.404 607.811 225.404C590.529 225.404 576.68 216.705 569.812 202.513H569.24V263.059H540.741ZM598.998 201.368C617.196 201.368 628.641 186.375 628.641 162.454V162.34C628.641 138.076 617.196 123.197 598.998 123.197C581.372 123.197 569.011 138.534 569.011 162.34V162.454C569.011 186.146 581.372 201.368 598.998 201.368ZM711.849 225.06C687.585 225.06 671.218 210.067 671.218 188.435V188.206C671.218 166.689 687.928 153.756 717.343 151.925L749.046 149.979V141.624C749.046 129.377 741.034 121.938 726.613 121.938C713.108 121.938 704.867 128.233 703.036 137.16L702.807 138.19H676.368L676.483 136.817C678.2 115.3 696.855 99.1617 727.643 99.1617C757.973 99.1617 777.545 115.185 777.545 139.564V223H749.046V204.344H748.359C741.378 217.048 727.872 225.06 711.849 225.06ZM699.602 187.291C699.602 197.248 707.843 203.314 720.318 203.314C736.685 203.314 749.046 192.441 749.046 178.02V168.864L721.348 170.58C707.271 171.496 699.602 177.562 699.602 187.176V187.291Z" fill="#05AAFC"/>
</svg>
